<svg
  id="Layer_1"
  data-name="Layer 1"
  xmlns="http://www.w3.org/2000/svg"
  viewBox="0 0 415.07 412.12"
>
  <defs>
    <style>
      .cls-1 {
        fill: #ce7878;
      }
      .cls-1,
      .cls-2 {
        stroke: #000;
        stroke-miterlimit: 10;
      }
      .cls-2 {
        fill: none;
      }
    </style>
  </defs>
  <g id="Layer_5_copy_2" data-name="Layer 5 copy 2">
    <path
      class="cls-1"
      d="M279.42,11c-20.22-2.21-40-5.49-60.58-4.91a288.72,288.72,0,0,0-67.65,10.05c-9.21,2.5-19.87,2.86-28.58,6.73a58.31,58.31,0,0,1-5.48,2.45,17.6,17.6,0,0,1-5.68.73c-8.26-.12-20.5,2.35-27.78,0-12.62-4.16-30.35,3.69-36.39,15.79-2.83,5.66,2,11.71.56,17.38S41.72,65.87,37.15,68c-15.62,7.42-8.73,30-2.87,41.75a107.32,107.32,0,0,1-12,5c-10.14,3.38-15.55,12-15.58,22.28,0,7.9.47,16.38,5.29,22.65,3.62,4.71,9.17,7.47,14.52,10.05h.09c-15.94,8.35-35,20.57-21.52,41.36,6.74,10.44,23,19.58,35.2,21.62,11.21,1.87,22.86,2,34.18,2.86a22.23,22.23,0,0,0,7.41-.28c7.38-2,11.81-4.54,19.81-4.47,8.54.07,17,1.58,25.5,2.18a13.57,13.57,0,0,1,4.27.76c4.66,1.91,5.72,8,5.62,13-.49,27.48-16.86,46.65-29.68,68.17a114.81,114.81,0,0,0-11.78,25.32c-5.42,17.71-10.72,74.4,21.58,71.2a7.1,7.1,0,0,0,4.16-1.53,3.28,3.28,0,0,0,.78-4.07c10,1.09,7.22-16.92,8.46-22.62,1.93-8.84,6.26-17.5,10.92-25.2,7.21-11.94,16.69-22.31,24.13-34.1,6.07-9.62,11.31-19.75,17.64-29.24,4.73-7.09,13-12.52,19.35-18,8.31-7.2,12.86-14.24,17.89-24,6.59-12.85,16.39-22.59,25-33.94,7.25-9.58,12.07-20.74,21-29.09,12.21-11.46,27.46-19.57,43.31-24.77a190.69,190.69,0,0,1,40.82-8.42c14.39-1.42,27.46.5,41.13-5.67,3.78-1.7,8.08-1.52,12.11-2,3.14-.34,6.42-1.2,8.49-3.76,4.33-5.34.84-14.09.33-20.13q-1.2-14-2.52-27.92c-2.54-26-5.61-51.89-10.52-77.55-.92-4.8-1.91-9.64-4.05-14-1-2-2.41-4.09-4.59-4.67C386.52-.4,379.64,2.27,375.21,3.3c-31.95,7.37-62.93,11.65-95.78,7.55"
    />
  </g>
  <g id="Layer_6" data-name="Layer 6">
    <line class="cls-2" x1="122.28" y1="405.74" x2="117.28" y2="399.74" />
    <path class="cls-2" d="M130.28,379.74s-6,6-10,11-3,12-3,12" />
    <path class="cls-2" d="M107.39,315l-.11-.24" />
    <path
      class="cls-2"
      d="M123.28,339.74s-11-7-13-15a76.48,76.48,0,0,0-2.89-9.76"
    />
    <path class="cls-2" d="M190.28,245.74s-13,2-19,0-10,2-17,0-9-4-9-4" />
    <path class="cls-2" d="M167.78,245.17s-3.5-1.43-8.5-3.43-6-3-6-3" />
    <path
      class="cls-2"
      d="M132.28,226.74a44.23,44.23,0,0,1,1,5,3.54,3.54,0,0,1-1,2s-3-2-4-4l-1-2-1-1"
    />
    <line class="cls-2" x1="279.42" y1="10.95" x2="279.28" y2="10.74" />
    <path
      class="cls-2"
      d="M283.28,71.74s1-1,2-5-1-11-2-13c-.78-1.56-.95-11-1-17"
    />
    <path class="cls-2" d="M282.29,36.72v-4c0-4-4-15-6-18s-8-5-8-5" />
    <line class="cls-2" x1="282.29" y1="36.72" x2="282.28" y2="36.74" />
    <path
      class="cls-2"
      d="M281.28,122.74s1,0,2,3a128.53,128.53,0,0,1,4,18c1,7-2,12-3,18s-12,19-12,19"
    />
    <path class="cls-2" d="M150.28,183.74c-1-3.39-.76-8.66-.06-14.1" />
    <path
      class="cls-2"
      d="M150.22,169.64a143.38,143.38,0,0,1,3.06-15.9c2-8,16-35,19-44s3-19,3-23"
    />
    <path
      class="cls-2"
      d="M150.22,169.64a220.94,220.94,0,0,1,13.06-33.9c8-16,39-29,39-29"
    />
    <path class="cls-2" d="M131.28,218.74s0-19,1-27,7-22,13-33,7-25,7-25" />
    <line class="cls-2" x1="87.74" y1="214.2" x2="70.46" y2="219.32" />
    <path
      class="cls-2"
      d="M70.46,219.32l-8.18,2.42s-9,4-13,5a24.32,24.32,0,0,1-9,0"
    />
    <path
      class="cls-2"
      d="M109.33,216c1-.08,2-.16,3-.26a33.83,33.83,0,0,0,17-7"
    />
    <path class="cls-2" d="M109.33,216c-9,.71-17.35.44-20-2.26l-1.55.5" />
    <path
      class="cls-2"
      d="M70.46,219.32l-2.18,2.42a11.21,11.21,0,0,0-4,5c-1,3-10,3-10,3"
    />
    <polyline class="cls-2" points="72.28 224.74 74.28 219.74 70.46 219.32" />
    <path class="cls-2" d="M86.28,214.74l1,1c1,1-2,7-2,7" />
    <line class="cls-2" x1="85.28" y1="208.74" x2="87.74" y2="214.2" />
    <path class="cls-2" d="M109.33,216v-.26" />
    <path class="cls-2" d="M109.33,216c.19,1,.81,4.88,0,5.74l-1,1" />
    <line class="cls-2" x1="119.28" y1="226.74" x2="119.23" y2="214.2" />
    <path class="cls-2" d="M106.28,185.74s2-1,0-7l-3-9" />
    <path
      class="cls-2"
      d="M129.28,200.74c-2.67-1.33-5.41-3-7-5.64-2.47-4.29-2.55-13.07-1.72-17.9a9.23,9.23,0,0,1,3.38-6,2.72,2.72,0,0,1,1.28-.58,3.45,3.45,0,0,1,1.85.47,59.38,59.38,0,0,1,8.72,5.17"
    />
    <path class="cls-2" d="M123.28,169.74c-6-1-8-1-12-2s-9-5-9-5" />
    <path class="cls-2" d="M26.51,169.72h-.23" />
    <path
      class="cls-2"
      d="M102.28,162.74s-3-4-6-4-17-1-20,0-19,3-25,5-15,2-19,4a17,17,0,0,1-5.77,2"
    />
    <path
      class="cls-2"
      d="M133.28,172.74c1.59-1,3.06-1.94,3.59-3.9a9.53,9.53,0,0,1,.44-1.56,6.12,6.12,0,0,1,1.4-1.68c4.64-4.65,5.81-14.2,5.81-20.4,0-4.22-2.28-6-6.18-7.57"
    />
    <path
      class="cls-2"
      d="M138.28,137.74c-3,0-2-2-3,0s-5,18-4,21,1,7,3,8,2,2,2,2"
    />
    <line class="cls-2" x1="131.28" y1="129.74" x2="135.28" y2="135.74" />
    <path
      class="cls-2"
      d="M138.34,137.63c1-1.75,1.91-3.74.8-5.66a9.65,9.65,0,0,0-3.35-3,20.1,20.1,0,0,0-6.45-3,11.07,11.07,0,0,1-2.28-.59c-2.47-1.16-3.16-4.83-5.78-5.57"
    />
    <path class="cls-2" d="M138.34,137.63l-.06.11" />
    <path
      class="cls-2"
      d="M121.28,119.74h0a41.1,41.1,0,0,1-4.93-2.56,49,49,0,0,0-5-2.42,74.44,74.44,0,0,0-10.57-3.52C79.67,106,55.6,105.12,34.3,109.66v.1q11.07-1.17,22.17-1.45c3.7-.1,7.4-.5,11.11-.54s7.41.57,11.09.87a155.69,155.69,0,0,1,22,3.08A73,73,0,0,1,111.28,115a52.49,52.49,0,0,1,5,2.31,40.85,40.85,0,0,0,5,2.49h0"
    />
    <line class="cls-2" x1="121.28" y1="119.74" x2="120.28" y2="129.74" />
    <path
      class="cls-2"
      d="M122.28,133.74a160.7,160.7,0,0,1,0,16.13,14.37,14.37,0,0,1-.61,3.8,15.55,15.55,0,0,1-1.71,3.16,13,13,0,0,1-3,3.52c-3.72,2.7-10.32,1.66-14.73,2.39"
    />
    <line class="cls-2" x1="126.28" y1="129.74" x2="126.18" y2="124.8" />
    <path class="cls-2" d="M147.28,124.74l-2,4c-1,2-3.5,10.36-3.5,10.36" />
    <path class="cls-2" d="M156.2,112.83a8.52,8.52,0,0,1-.17.85" />
    <path class="cls-2" d="M136.28,127.74s8,0,12-5c.31-.38.61-.74.92-1.08" />
    <path class="cls-2" d="M149.28,121.74l-.08-.08" />
    <path
      class="cls-2"
      d="M153.28,92.74c-2.45,0-4.86-.88-7.36-.87a1.52,1.52,0,0,0-1,.23,1.62,1.62,0,0,0-.4.65c-3.43,8.06-5.26,15.23-5.26,24,0,2.63,7.64,2.92,9.92,4.92"
    />
    <path class="cls-2" d="M156,113.68c-.8,3-3.48,4.4-6.41,7.52l-.42.46" />
    <path
      class="cls-2"
      d="M156.2,112.83c.27-3.59.57-7.32.52-10.92-.06-3.39-.91-7-3.43-9.26"
    />
    <line class="cls-2" x1="135.28" y1="120.74" x2="139.28" y2="118.74" />
    <path class="cls-2" d="M130.28,113.74s-1,5-3,5h-7.62" />
    <path class="cls-2" d="M117.78,73.81c1.08.42,2,.74,2.51.93" />
    <path class="cls-2" d="M127.07,76a57.43,57.43,0,0,1-6.79-1.21" />
    <path
      class="cls-2"
      d="M100.17,69.5c2.33.55,4.65,1.14,7,1.81s4.38,1.52,6.6,2.06c.1,0,2.64.31,3.74.33.35,0,.55,0,.48-.08-1.44-1.26-8.55-2.75-17.78-4.12"
    />
    <path
      class="cls-2"
      d="M47.64,65.45a7.61,7.61,0,0,0-1.08.19,10.59,10.59,0,0,0-1.24.41c-.4.16-.39.17,0,0a7.53,7.53,0,0,1,1.25-.38c.35-.09.71-.16,1.06-.24"
    />
    <path class="cls-2" d="M47.64,65.45c7.3-.94,34.13,1.32,52.53,4" />
    <path
      class="cls-2"
      d="M47.64,65.45A62.27,62.27,0,0,1,56.86,64c8-.59,16.92,1.35,24.87,2.3a169.61,169.61,0,0,1,18.44,3.19"
    />
    <path
      class="cls-2"
      d="M153.28,92.74v-3c0-3-1-4-3-6-1.47-1.47-4-2.4-6.87-3.59"
    />
    <path
      class="cls-2"
      d="M127.07,76c4.86.7,10.74,1.56,13.21,2.79,1.06.53,2.11,1,3.13,1.41"
    />
    <path class="cls-2" d="M132.28,98.74s2-12,0-15L127.07,76" />
    <line class="cls-2" x1="120.28" y1="74.74" x2="123.28" y2="77.74" />
    <path class="cls-2" d="M156,113.68v.06" />
    <path class="cls-2" d="M156.2,112.83c-.11.48-.15.75-.17.85" />
    <path
      class="cls-2"
      d="M156.2,112.83c.25-1.1.81-3.29,2.08-7.09,2-6,0-16,0-16"
    />
    <path
      class="cls-2"
      d="M135.2,47.72c.82.41,1.65.8,2.46,1.23,3,1.59,6.62,6.11,6.62,9.79,0,.66,1.3,2.18,2.76,4"
    />
    <path class="cls-2" d="M118.36,40.51a156.16,156.16,0,0,1,16.84,7.21" />
    <path class="cls-2" d="M149.28,65.74c-.68-1-1.49-2-2.24-3" />
    <path class="cls-2" d="M149.28,65.74c2,3,3,19,3,19" />
    <path class="cls-2" d="M118.28,40.74c-3,0-30-13-30-13" />
    <path class="cls-2" d="M124.28,58.74s1-5,0-7-12.59-13.3-12.59-13.3" />
    <line class="cls-2" x1="123.28" y1="69.74" x2="117.77" y2="73.81" />
    <path class="cls-2" d="M143.48,79.87c8.16,2.17,6.21-9.59,5.8-14.13" />
    <path
      class="cls-2"
      d="M130.28,75.74c1-3.83,2.24-8.32,5.44-10.93s7.4-2.07,11.32-2.07"
    />
    <line class="cls-2" x1="135.2" y1="47.73" x2="135.2" y2="47.72" />
    <line class="cls-2" x1="135.2" y1="47.72" x2="133.28" y2="41.74" />
    <line class="cls-2" x1="118.28" y1="40.74" x2="117.28" y2="36.74" />
    <line class="cls-2" x1="111.45" y1="26" x2="111.28" y2="25.74" />
    <line class="cls-2" x1="115.28" y1="31.74" x2="111.45" y2="26" />
    <path class="cls-2" d="M130.28,38.74s1-5-3-8a45.51,45.51,0,0,0-9-5h-1" />
  </g>
</svg>
