<svg
  id="Layer_1"
  data-name="Layer 1"
  xmlns="http://www.w3.org/2000/svg"
  viewBox="0 0 415.07 412.12"
>
  <defs>
    <style>
      .cls-1 {
        fill: #90be7c;
      }
      .cls-1,
      .cls-2 {
        stroke: #000;
        stroke-miterlimit: 10;
      }
      .cls-2 {
        fill: none;
      }
    </style>
  </defs>
  <g id="Layer_5_copy_2" data-name="Layer 5 copy 2">
    <path
      class="cls-1"
      d="M135.65,401.17c20.22,2.21,39.95,5.49,60.58,4.91A289.24,289.24,0,0,0,263.88,396c9.21-2.5,19.87-2.86,28.58-6.73a57.18,57.18,0,0,1,5.48-2.45,17.6,17.6,0,0,1,5.68-.73c8.26.12,20.5-2.35,27.78,0,12.62,4.16,30.35-3.69,36.39-15.79,2.83-5.66-2-11.71-.56-17.38s6.12-6.7,10.69-8.87c15.62-7.42,8.73-30,2.87-41.75a106.54,106.54,0,0,1,12-5c10.14-3.38,15.55-12,15.58-22.28,0-7.9-.47-16.38-5.29-22.65-3.62-4.71-9.17-7.47-14.52-10.05h-.09c15.94-8.35,35-20.57,21.52-41.36-6.74-10.44-23-19.58-35.2-21.62-11.21-1.87-22.86-2-34.18-2.86a22.22,22.22,0,0,0-7.41.28c-7.38,2-11.81,4.54-19.81,4.47-8.54-.07-17-1.58-25.5-2.18a13.57,13.57,0,0,1-4.27-.76c-4.66-1.91-5.72-8-5.62-13,.49-27.48,16.86-46.65,29.68-68.17a114.81,114.81,0,0,0,11.78-25.32c5.42-17.71,10.72-74.4-21.58-71.2a7.1,7.1,0,0,0-4.16,1.53,3.28,3.28,0,0,0-.78,4.07c-10-1.09-7.22,16.92-8.46,22.62-1.93,8.84-6.26,17.5-10.92,25.2-7.21,11.94-16.69,22.31-24.13,34.1-6.07,9.62-11.31,19.75-17.64,29.24-4.73,7.09-13,12.52-19.35,18-8.31,7.2-12.86,14.24-17.89,24-6.59,12.85-16.39,22.59-25,33.94-7.25,9.58-12.07,20.74-21.05,29.09C136.29,233.88,121,242,105.19,247.19a190.81,190.81,0,0,1-40.82,8.42c-14.39,1.42-27.46-.5-41.13,5.67-3.78,1.7-8.08,1.52-12.11,2-3.14.34-6.42,1.2-8.49,3.76-4.33,5.34-.84,14.09-.33,20.13q1.2,14,2.52,27.92c2.54,26,5.61,51.89,10.52,77.55.92,4.8,1.91,9.64,4,14,1,2,2.41,4.09,4.59,4.67,4.56,1.21,11.44-1.46,15.87-2.49,32-7.37,62.93-11.65,95.78-7.55"
    />
  </g>
  <g id="Layer_6" data-name="Layer 6">
    <line class="cls-2" x1="292.79" y1="6.38" x2="297.79" y2="12.38" />
    <path class="cls-2" d="M284.79,32.38s6-6,10-11,3-12,3-12" />
    <path class="cls-2" d="M307.68,97.14a2.56,2.56,0,0,0,.11.24" />
    <path class="cls-2" d="M291.79,72.38s11,7,13,15a77,77,0,0,0,2.89,9.76" />
    <path class="cls-2" d="M224.79,166.38s13-2,19,0,10-2,17,0,9,4,9,4" />
    <path class="cls-2" d="M247.29,167s3.5,1.43,8.5,3.43,6,3,6,3" />
    <path
      class="cls-2"
      d="M282.79,185.38a44.67,44.67,0,0,1-1-5,3.54,3.54,0,0,1,1-2s3,2,4,4l1,2,1,1"
    />
    <line class="cls-2" x1="135.65" y1="401.17" x2="135.79" y2="401.38" />
    <path
      class="cls-2"
      d="M131.79,340.38s-1,1-2,5,1,11,2,13c.78,1.56,1,11,1,17"
    />
    <path class="cls-2" d="M132.78,375.4v4c0,4,4,15,6,18s8,5,8,5" />
    <line class="cls-2" x1="132.78" y1="375.4" x2="132.79" y2="375.38" />
    <path
      class="cls-2"
      d="M133.79,289.38s-1,0-2-3a128.85,128.85,0,0,1-4-18c-1-7,2-12,3-18s12-19,12-19"
    />
    <path class="cls-2" d="M264.79,228.38c1,3.39.76,8.66.06,14.1" />
    <path
      class="cls-2"
      d="M264.85,242.48a143.38,143.38,0,0,1-3.06,15.9c-2,8-16,35-19,44s-3,19-3,23"
    />
    <path
      class="cls-2"
      d="M264.85,242.48a222,222,0,0,1-13.06,33.9c-8,16-39,29-39,29"
    />
    <path class="cls-2" d="M283.79,193.38s0,19-1,27-7,22-13,33-7,25-7,25" />
    <line class="cls-2" x1="327.33" y1="197.92" x2="344.61" y2="192.8" />
    <path
      class="cls-2"
      d="M344.61,192.8l8.18-2.42s9-4,13-5a24.32,24.32,0,0,1,9,0"
    />
    <path
      class="cls-2"
      d="M305.74,196.12c-1,.08-2,.16-3,.26a33.83,33.83,0,0,0-17,7"
    />
    <path class="cls-2" d="M305.74,196.12c8.95-.71,17.35-.44,20,2.26l1.55-.5" />
    <path
      class="cls-2"
      d="M344.61,192.8l2.18-2.42a11.21,11.21,0,0,0,4-5c1-3,10-3,10-3"
    />
    <polyline class="cls-2" points="342.79 187.38 340.79 192.38 344.61 192.8" />
    <path class="cls-2" d="M328.79,197.38l-1-1c-1-1,2-7,2-7" />
    <line class="cls-2" x1="329.79" y1="203.38" x2="327.33" y2="197.92" />
    <path class="cls-2" d="M305.74,196.12v.26" />
    <path class="cls-2" d="M305.74,196.12c-.19-1-.81-4.88,0-5.74l1-1" />
    <line class="cls-2" x1="295.79" y1="185.38" x2="295.84" y2="197.92" />
    <path class="cls-2" d="M308.79,226.38s-2,1,0,7l3,9" />
    <path
      class="cls-2"
      d="M285.79,211.38c2.67,1.33,5.41,3,7,5.64,2.47,4.29,2.55,13.07,1.72,17.9a9.23,9.23,0,0,1-3.38,6,2.77,2.77,0,0,1-1.28.58A3.43,3.43,0,0,1,288,241a58.86,58.86,0,0,1-8.72-5.17"
    />
    <path class="cls-2" d="M291.79,242.38c6,1,8,1,12,2s9,5,9,5" />
    <path class="cls-2" d="M388.56,242.4h.23" />
    <path
      class="cls-2"
      d="M312.79,249.38s3,4,6,4,17,1,20,0,19-3,25-5,15-2,19-4a16.94,16.94,0,0,1,5.77-2"
    />
    <path
      class="cls-2"
      d="M281.79,239.38c-1.59,1-3.06,1.94-3.59,3.9a9.53,9.53,0,0,1-.44,1.56,6.46,6.46,0,0,1-1.4,1.68c-4.64,4.65-5.81,14.2-5.81,20.4,0,4.22,2.28,6,6.18,7.57"
    />
    <path
      class="cls-2"
      d="M276.79,274.38c3,0,2,2,3,0s5-18,4-21-1-7-3-8-2-2-2-2"
    />
    <line class="cls-2" x1="283.79" y1="282.38" x2="279.79" y2="276.38" />
    <path
      class="cls-2"
      d="M276.73,274.49c-1,1.75-1.91,3.74-.8,5.66a9.56,9.56,0,0,0,3.35,3,20.1,20.1,0,0,0,6.45,3,10.47,10.47,0,0,1,2.28.59c2.47,1.16,3.16,4.83,5.78,5.57"
    />
    <path class="cls-2" d="M276.73,274.49l.06-.11" />
    <path
      class="cls-2"
      d="M293.79,292.38h0a41.1,41.1,0,0,1,4.93,2.56,49,49,0,0,0,5,2.42,74.44,74.44,0,0,0,10.57,3.52c21.11,5.28,45.18,6.12,66.48,1.58v-.1q-11.07,1.17-22.17,1.45c-3.7.1-7.4.5-11.11.54s-7.41-.57-11.09-.87a155.29,155.29,0,0,1-22-3.08,73,73,0,0,1-10.61-3.24,52.49,52.49,0,0,1-5-2.31,42.33,42.33,0,0,0-5-2.49h0"
    />
    <line class="cls-2" x1="293.79" y1="292.38" x2="294.79" y2="282.38" />
    <path
      class="cls-2"
      d="M292.79,278.38a160.7,160.7,0,0,1,0-16.13,14,14,0,0,1,.61-3.8,15.55,15.55,0,0,1,1.71-3.16,12.85,12.85,0,0,1,3-3.52c3.72-2.7,10.32-1.66,14.73-2.39"
    />
    <line class="cls-2" x1="288.79" y1="282.38" x2="288.89" y2="287.32" />
    <path class="cls-2" d="M267.79,287.38l2-4c1-2,3.5-10.36,3.5-10.36" />
    <path class="cls-2" d="M258.87,299.29a8,8,0,0,1,.17-.85" />
    <path class="cls-2" d="M278.79,284.38s-8,0-12,5c-.31.38-.61.74-.92,1.08" />
    <path class="cls-2" d="M265.79,290.38l.08.08" />
    <path
      class="cls-2"
      d="M261.79,319.38c2.45,0,4.86.88,7.36.87a1.54,1.54,0,0,0,1-.23,1.69,1.69,0,0,0,.4-.65c3.43-8.06,5.26-15.23,5.26-24,0-2.63-7.64-2.92-9.92-4.92"
    />
    <path class="cls-2" d="M259,298.44c.8-3,3.48-4.4,6.41-7.52l.42-.46" />
    <path
      class="cls-2"
      d="M258.87,299.29c-.27,3.59-.57,7.32-.52,10.92.06,3.39.91,7,3.43,9.26"
    />
    <line class="cls-2" x1="279.79" y1="291.38" x2="275.79" y2="293.38" />
    <path class="cls-2" d="M284.79,298.38s1-5,3-5h7.62" />
    <path class="cls-2" d="M297.29,338.31c-1.08-.42-2-.74-2.51-.93" />
    <path class="cls-2" d="M288,336.17a57.43,57.43,0,0,1,6.79,1.21" />
    <path
      class="cls-2"
      d="M314.9,342.62c-2.33-.55-4.65-1.14-7-1.81s-4.38-1.52-6.6-2.06c-.1,0-2.64-.31-3.74-.33-.35,0-.55,0-.48.08,1.44,1.26,8.55,2.75,17.78,4.12"
    />
    <path
      class="cls-2"
      d="M367.43,346.67a9.36,9.36,0,0,0,1.08-.19,10.59,10.59,0,0,0,1.24-.41c.4-.16.39-.17,0,0a7.53,7.53,0,0,1-1.25.38c-.35.09-.71.16-1.06.24"
    />
    <path class="cls-2" d="M367.43,346.67c-7.3.94-34.13-1.32-52.53-4" />
    <path
      class="cls-2"
      d="M367.43,346.67a62.27,62.27,0,0,1-9.22,1.44c-8,.59-16.92-1.35-24.87-2.3a169.61,169.61,0,0,1-18.44-3.19"
    />
    <path
      class="cls-2"
      d="M261.79,319.38v3c0,3,1,4,3,6,1.47,1.47,4,2.4,6.87,3.59"
    />
    <path
      class="cls-2"
      d="M288,336.17c-4.86-.7-10.74-1.56-13.21-2.79-1.06-.53-2.11-1-3.13-1.41"
    />
    <path class="cls-2" d="M282.79,313.38s-2,12,0,15l5.21,7.79" />
    <line class="cls-2" x1="294.79" y1="337.38" x2="291.79" y2="334.38" />
    <path class="cls-2" d="M259,298.44v-.06" />
    <path class="cls-2" d="M258.87,299.29c.11-.48.15-.75.17-.85" />
    <path
      class="cls-2"
      d="M258.87,299.29c-.25,1.1-.81,3.29-2.08,7.09-2,6,0,16,0,16"
    />
    <path
      class="cls-2"
      d="M279.87,364.4c-.82-.41-1.65-.8-2.46-1.23-3-1.59-6.62-6.11-6.62-9.79,0-.66-1.3-2.18-2.76-4"
    />
    <path class="cls-2" d="M296.71,371.61a156.16,156.16,0,0,1-16.84-7.21" />
    <path class="cls-2" d="M265.79,346.38c.68,1,1.49,2,2.24,3" />
    <path class="cls-2" d="M265.79,346.38c-2-3-3-19-3-19" />
    <path class="cls-2" d="M296.79,371.38c3,0,30,13,30,13" />
    <path class="cls-2" d="M290.79,353.38s-1,5,0,7,12.59,13.3,12.59,13.3" />
    <line class="cls-2" x1="291.79" y1="342.38" x2="297.3" y2="338.31" />
    <path class="cls-2" d="M271.59,332.25c-8.16-2.17-6.21,9.59-5.8,14.13" />
    <path
      class="cls-2"
      d="M284.79,336.38c-1,3.83-2.24,8.32-5.44,10.93s-7.4,2.07-11.32,2.07"
    />
    <line class="cls-2" x1="279.87" y1="364.39" x2="279.87" y2="364.4" />
    <line class="cls-2" x1="279.87" y1="364.4" x2="281.79" y2="370.38" />
    <line class="cls-2" x1="296.79" y1="371.38" x2="297.79" y2="375.38" />
    <line class="cls-2" x1="303.62" y1="386.12" x2="303.79" y2="386.38" />
    <line class="cls-2" x1="299.79" y1="380.38" x2="303.62" y2="386.12" />
    <path class="cls-2" d="M284.79,373.38s-1,5,3,8a45.51,45.51,0,0,0,9,5h1" />
  </g>
</svg>
